<?xml version="1.0" encoding="utf-8"?>
<svg width="2500px" height="2002px" viewBox="0 0 2500 2002" version="1.1" xmlns:xlink="http://www.w3.org/1999/xlink" xmlns="http://www.w3.org/2000/svg">
  <defs>
    <path d="M0 0L2500 0L2500 2002L0 2002L0 0Z" id="path_1" />
    <clipPath id="mask_1">
      <use xlink:href="#path_1" />
    </clipPath>
  </defs>
  <g id="blender2">
    <path d="M0 0L2500 0L2500 2002L0 2002L0 0Z" id="Background" fill="#FFFFFF" fill-opacity="0" fill-rule="evenodd" stroke="none" />
    <path d="M2028.47 1472.95C1928.58 1574.02 1788.86 1631.18 1637.52 1631.38C1486.07 1631.68 1346.25 1574.93 1246.36 1474.15C1197.53 1425.01 1161.74 1368.66 1139.5 1308.39C1117.76 1249.23 1109.47 1185.96 1115.03 1123.29C1120.39 1062.12 1138.59 1002.65 1168.61 948.907C1197.83 896.362 1237.97 848.932 1287.51 808.822C1384.56 730.306 1508.11 687.89 1637.52 687.689C1766.92 687.489 1890.37 729.705 1987.52 807.819C2036.96 847.829 2077.1 895.059 2106.22 947.503C2136.24 1001.25 2154.54 1060.61 2159.9 1121.78C2165.46 1184.55 2157.07 1247.73 2135.33 1306.99C2113.09 1367.16 2077.2 1423.61 2028.47 1472.95L2028.47 1472.95Z" id="Shape" fill="#FFFFFF" stroke="none" />
    <path d="M1314.6 1129.7C1319.15 1047.98 1359.59 975.881 1420.45 924.841C1480.2 874.603 1560.68 844.019 1648.33 844.019C1736.09 844.119 1816.46 874.703 1876.21 924.841C1937.08 975.981 1977.52 1047.98 1982.17 1129.7C1986.82 1213.73 1952.75 1291.85 1893 1349.71C1832.13 1408.57 1745.39 1445.57 1648.33 1445.57C1551.28 1445.57 1464.43 1408.57 1403.57 1349.71C1343.92 1291.85 1309.95 1213.73 1314.6 1129.7L1314.6 1129.7Z" id="Shape" fill="#005385" stroke="none" />
    <path d="M782.918 1295.16C783.525 1327.05 793.837 1389.22 809.204 1437.85C841.657 1540.63 896.656 1635.79 973.289 1719.62C1051.95 1805.76 1148.6 1874.95 1260.41 1923.99C1377.99 1975.63 1505.28 2002 1637.42 2001.7C1769.55 2001.5 1896.84 1974.73 2014.32 1922.68C2126.03 1873.05 2222.68 1803.66 2301.24 1717.32C2377.77 1633.09 2432.67 1537.82 2465.12 1435.04C2481.3 1383.8 2491.71 1330.96 2495.96 1277.51C2500 1225.37 2498.28 1172.82 2490.9 1120.98C2476.34 1019.3 2440.86 923.938 2386.26 837C2336.22 757.18 2271.92 687.188 2195.39 628.226L2195.49 628.126L1423.29 40.1103C1422.68 39.6089 1421.97 39.0072 1421.36 38.5059C1370.51 7.24792e-05 1285.39 0.100351 1229.68 38.8067C1173.27 77.9141 1166.9 142.592 1216.94 183.404L1216.74 183.504L1538.84 443.418L556.859 444.421L555.545 444.421C474.462 444.521 396.413 497.367 380.945 564.05C365.173 632.036 420.273 688.391 504.691 688.792L504.59 689.093L1002.31 688.09L114.142 1364.25C113.03 1365.15 111.817 1365.95 110.806 1366.76C27.095 1430.33 0.000183105 1536.22 52.6733 1603.2C106.256 1671.29 220.095 1671.39 304.817 1603.51L789.49 1210.12C789.49 1210.12 782.413 1263.27 782.918 1295.16L782.918 1295.16ZM2028.47 1472.95C1928.58 1574.02 1788.86 1631.18 1637.52 1631.38C1486.07 1631.68 1346.25 1574.93 1246.36 1474.15C1197.53 1425.02 1161.74 1368.66 1139.5 1308.39C1117.76 1249.23 1109.47 1185.96 1115.03 1123.29C1120.39 1062.12 1138.59 1002.65 1168.61 948.907C1197.83 896.362 1237.97 848.932 1287.51 808.822C1384.56 730.306 1508.11 687.89 1637.52 687.689C1766.92 687.489 1890.37 729.705 1987.52 807.819C2036.96 847.829 2077.1 895.059 2106.22 947.503C2136.24 1001.25 2154.54 1060.61 2159.9 1121.78C2165.46 1184.55 2157.07 1247.73 2135.33 1306.99C2113.09 1367.16 2077.2 1423.61 2028.47 1472.95L2028.47 1472.95Z" id="Shape" fill="#FF7021" fill-rule="evenodd" stroke="none" />
  </g>
</svg>