<?xml version="1.0" encoding="utf-8"?>
<svg width="48px" height="48px" viewBox="0 0 48 48" version="1.1" xmlns:xlink="http://www.w3.org/1999/xlink" xmlns="http://www.w3.org/2000/svg">
  <defs>
    <path d="M0 0L48 0L48 48L0 48L0 0Z" id="path_1" />
    <clipPath id="mask_1">
      <use xlink:href="#path_1" />
    </clipPath>
  </defs>
  <g id="davinci2">
    <path d="M0 0L48 0L48 48L0 48L0 0Z" id="Background" fill="#FFFFFF" fill-opacity="0" fill-rule="evenodd" stroke="none" />
    <path d="M24 5C13.5066 5 5.00003 13.5066 5 24C4.99997 34.4933 13.5065 43 23.9999 43C34.4933 43 42.9999 34.4935 43 24.0001C43 13.5067 34.4935 5.00008 24.0001 5L24 5Z" id="Shape" fill="#37474F" stroke="none" />
    <path d="M25.064 25.167L27.473 31.498C28.019 32.239 28.668 32.887 29.442 33.326C31.861 34.699 34.942 33.907 36.323 31.557L36.323 31.557C36.322 31.557 25.34 25.378 25.064 25.167L25.064 25.167Z" id="Shape" fill="#FF7043" stroke="none" />
    <path d="M25.064 25.167C25.387 25.296 36.323 31.556 36.323 31.556L36.323 31.556C37.703 29.205 36.861 26.187 34.441 24.814C33.667 24.375 32.772 24.147 31.846 24.052L25.064 25.167L25.064 25.167Z" id="Shape" fill="#F16461" stroke="none" />
    <path d="M33.492 26.545C33.201 26.38 32.887 26.239 32.563 26.11C32.667 27.103 32.478 28.134 31.931 29.065C31.384 29.996 30.571 30.672 29.644 31.08C29.92 31.291 30.201 31.488 30.492 31.653C33.523 33.373 35.493 32.967 36.322 31.557L36.322 31.557L36.322 31.557C37.151 30.146 36.523 28.265 33.492 26.545L33.492 26.545Z" id="Shape" fill="#FF5252" stroke="none" />
    <path d="M27.664 29.134C28.253 29.844 28.92 30.526 29.645 31.079C30.572 30.671 31.386 29.995 31.932 29.064C32.479 28.133 32.668 27.102 32.564 26.109C31.714 25.769 30.779 25.542 29.86 25.396C29.904 26.137 29.74 26.899 29.335 27.59C28.928 28.281 28.339 28.802 27.664 29.134L27.664 29.134Z" id="Shape" fill="#FF855F" stroke="none" />
    <path d="M29.645 31.08C28.92 30.527 28.253 29.844 27.664 29.135C27.243 29.342 26.788 29.467 26.321 29.519C26.638 30.202 27.019 30.882 27.474 31.499C28.223 31.516 28.964 31.379 29.645 31.08L29.645 31.08Z" id="Shape" fill="#FF8A65" stroke="none" />
    <path d="M29.859 25.397C30.779 25.544 31.714 25.77 32.563 26.11C32.487 25.38 32.237 24.682 31.846 24.052C31.075 23.973 30.286 23.99 29.526 24.061C29.713 24.485 29.832 24.935 29.859 25.397L29.859 25.397Z" id="Shape" fill="#FF8A80" stroke="none" />
    <path d="M29.334 27.59C29.74 26.899 29.904 26.138 29.859 25.396C27.387 25.002 25.064 25.167 25.064 25.167C25.064 25.167 26.08 27.227 27.664 29.134C28.339 28.802 28.928 28.281 29.334 27.59L29.334 27.59Z" id="Shape" fill="#FFCCBC" stroke="none" />
    <path d="M27.664 29.134C26.08 27.227 25.064 25.167 25.064 25.167C25.006 25.265 24.985 25.384 25.01 25.505C25.163 26.247 25.56 27.884 26.32 29.519C26.787 29.466 27.243 29.342 27.664 29.134L27.664 29.134Z" id="Shape" fill="#FFAB91" stroke="none" />
    <path d="M29.526 24.061C27.705 24.231 26.065 24.712 25.335 24.953C25.216 24.992 25.122 25.07 25.065 25.168C25.065 25.168 27.388 25.003 29.86 25.397C29.832 24.935 29.713 24.485 29.526 24.061L29.526 24.061Z" id="Shape" fill="#FFCDD2" stroke="none" />
    <g id="Group" transform="translate(10.9997 24.000237)">
      <path d="M11.9223 1.16676C11.6463 1.37776 0.664301 7.55576 0.664301 7.55576L0.664301 7.55576C2.0453 9.90576 5.1253 10.6978 7.5453 9.32476C8.3193 8.88577 8.9683 8.23776 9.5143 7.49677L11.9223 1.16676L11.9223 1.16676Z" id="Shape" fill="#C6CF47" stroke="none" />
      <path d="M11.9223 1.16676L5.1403 0.0517635C4.2143 0.145763 3.3183 0.374763 2.5453 0.813763C0.126302 2.18676 -0.716699 5.20476 0.663301 7.55576L0.663301 7.55576C0.6643 7.55576 11.5993 1.29676 11.9223 1.16676L11.9223 1.16676Z" id="Shape" fill="#E1EB8A" stroke="none" />
      <path d="M6.4943 7.65276C6.7853 7.48776 7.0663 7.28976 7.3423 7.07976C6.4153 6.67176 5.6013 5.99576 5.0553 5.06476C4.5083 4.13376 4.3193 3.10276 4.4233 2.10976C4.1003 2.23876 3.7853 2.37976 3.4943 2.54476C0.463299 4.26476 -0.163701 6.14476 0.664299 7.55576L0.664299 7.55576L0.664299 7.55576C1.4933 8.96676 3.4633 9.37276 6.4943 7.65276L6.4943 7.65276Z" id="Shape" fill="#DCE775" stroke="none" />
      <path d="M7.1273 1.39676C6.2073 1.54376 5.2723 1.76976 4.4233 2.10976C4.3193 3.10276 4.5083 4.13376 5.0553 5.06476C5.6023 5.99576 6.4153 6.67176 7.3423 7.07976C8.0673 6.52676 8.7343 5.84376 9.3233 5.13476C8.6483 4.80176 8.0593 4.28176 7.6533 3.59076C7.2473 2.89876 7.0833 2.13776 7.1273 1.39676L7.1273 1.39676Z" id="Shape" fill="#FFF59D" stroke="none" />
      <path d="M4.4233 2.10976C5.2733 1.76976 6.2083 1.54276 7.1273 1.39676C7.1553 0.934765 7.2733 0.484764 7.4603 0.0607643C6.7003 -0.0102348 5.9103 -0.0262356 5.1403 0.0517635C4.7493 0.681763 4.4993 1.38076 4.4233 2.10976L4.4233 2.10976Z" id="Shape" fill="#E6EE9C" stroke="none" />
      <path d="M9.3233 5.13376C8.7343 5.84376 8.0673 6.52576 7.3423 7.07876C8.0233 7.37876 8.7643 7.51576 9.5143 7.49776C9.9693 6.88076 10.3493 6.20076 10.6673 5.51777C10.1993 5.46576 9.7443 5.34176 9.3233 5.13376L9.3233 5.13376Z" id="Shape" fill="#FFD740" stroke="none" />
      <path d="M7.6533 3.58976C8.0593 4.28076 8.6483 4.80076 9.3233 5.13376C10.9073 3.22676 11.9233 1.16676 11.9233 1.16676C11.9233 1.16676 9.6003 1.00176 7.1283 1.39576C7.0833 2.13776 7.2473 2.89876 7.6533 3.58976L7.6533 3.58976Z" id="Shape" fill="#FFF9C4" stroke="none" />
      <path d="M7.1273 1.39676C9.5993 1.00276 11.9223 1.16776 11.9223 1.16776C11.8643 1.06976 11.7713 0.991762 11.6523 0.952763C10.9213 0.711763 9.2813 0.231762 7.4613 0.0607624C7.2733 0.484764 7.1553 0.934763 7.1273 1.39676L7.1273 1.39676Z" id="Shape" fill="#F0F4C3" stroke="none" />
      <path d="M10.6663 5.51776C11.4263 3.88276 11.8233 2.24676 11.9763 1.50376C12.0013 1.38276 11.9803 1.26376 11.9223 1.16576C11.9223 1.16576 10.9063 3.22576 9.3223 5.13276C9.7443 5.34176 10.1993 5.46576 10.6663 5.51776L10.6663 5.51776Z" id="Shape" fill="#FFE082" stroke="none" />
    </g>
    <g id="Group" transform="translate(4 4)">
      <path d="M37.37 24.654C36.959 26.191 36.355 27.647 35.576 28.993L37.307 29.992C38.173 28.496 38.843 26.88 39.3 25.171L37.37 24.654L37.37 24.654Z" id="Shape" fill="#F44336" stroke="none" />
      <path d="M7.272 32.728L5.858 34.142C7.089 35.373 8.491 36.429 10.008 37.307L11.007 35.576C9.642 34.786 8.38 33.836 7.272 32.728L7.272 32.728Z" id="Shape" fill="#FFD740" stroke="none" />
      <path d="M2 20L0 20C0 21.792 0.258 23.519 0.7 25.172L2.63 24.655C2.232 23.167 2 21.612 2 20L2 20Z" id="Shape" fill="#AED581" stroke="none" />
      <path d="M4.424 28.993L2.693 29.992C3.571 31.509 4.627 32.91 5.858 34.142L7.272 32.728C6.164 31.62 5.214 30.358 4.424 28.993L4.424 28.993Z" id="Shape" fill="#FFF176" stroke="none" />
      <path d="M2.63 24.654L0.7 25.172C1.157 26.88 1.828 28.497 2.693 29.993L4.424 28.994C3.645 27.647 3.041 26.192 2.63 24.654L2.63 24.654Z" id="Shape" fill="#DCE775" stroke="none" />
      <path d="M11.007 35.576L10.008 37.307C11.504 38.172 13.12 38.843 14.829 39.3L15.346 37.37C13.808 36.959 12.353 36.355 11.007 35.576L11.007 35.576Z" id="Shape" fill="#FFCA28" stroke="none" />
      <path d="M28.993 35.576L29.992 37.307C31.509 36.429 32.911 35.373 34.142 34.142L32.728 32.728C31.62 33.836 30.358 34.786 28.993 35.576L28.993 35.576Z" id="Shape" fill="#FF7043" stroke="none" />
      <path d="M24.654 37.37L25.171 39.3C26.879 38.843 28.496 38.172 29.992 37.307L28.993 35.576C27.647 36.355 26.192 36.959 24.654 37.37L24.654 37.37Z" id="Shape" fill="#FB8C00" stroke="none" />
      <path d="M32.728 32.728L34.142 34.142C35.373 32.911 36.429 31.509 37.307 29.992L35.576 28.993C34.786 30.358 33.836 31.62 32.728 32.728L32.728 32.728Z" id="Shape" fill="#FF5252" stroke="none" />
      <path d="M15.346 37.37L14.829 39.3C16.481 39.742 18.208 40 20 40L20 38C18.388 38 16.833 37.768 15.346 37.37L15.346 37.37Z" id="Shape" fill="#FFB74D" stroke="none" />
      <path d="M20 38L20 40C21.792 40 23.519 39.742 25.172 39.3L24.655 37.37C23.167 37.768 21.612 38 20 38L20 38Z" id="Shape" fill="#FFA726" stroke="none" />
      <path d="M15.346 2.63L14.828 0.7C13.12 1.157 11.503 1.828 10.007 2.693L11.006 4.424C12.353 3.645 13.808 3.041 15.346 2.63L15.346 2.63Z" id="Shape" fill="#64B5F6" stroke="none" />
      <path d="M37.37 15.346L39.3 14.829C38.843 13.121 38.172 11.504 37.307 10.008L35.576 11.007C36.355 12.353 36.959 13.808 37.37 15.346L37.37 15.346Z" id="Shape" fill="#9575CD" stroke="none" />
      <path d="M35.576 11.007L37.307 10.008C36.429 8.491 35.373 7.089 34.142 5.858L32.728 7.272C33.836 8.38 34.786 9.642 35.576 11.007L35.576 11.007Z" id="Shape" fill="#7986CB" stroke="none" />
      <path d="M32.728 7.272L34.142 5.858C32.911 4.627 31.509 3.571 29.992 2.693L28.993 4.424C30.358 5.214 31.62 6.164 32.728 7.272L32.728 7.272Z" id="Shape" fill="#8C9EFF" stroke="none" />
      <path d="M28.993 4.424L29.992 2.693C28.497 1.827 26.88 1.156 25.172 0.7L24.655 2.63C26.192 3.041 27.647 3.645 28.993 4.424L28.993 4.424Z" id="Shape" fill="#82B1FF" stroke="none" />
      <path d="M38 20L40 20C40 18.208 39.742 16.481 39.3 14.828L37.37 15.345C37.768 16.833 38 18.388 38 20L38 20Z" id="Shape" fill="#F06292" stroke="none" />
      <path d="M2.63 15.346L0.7 14.828C0.258 16.481 0 18.208 0 20L2 20C2 18.388 2.232 16.833 2.63 15.346L2.63 15.346Z" id="Shape" fill="#9CCC65" stroke="none" />
      <path d="M37.37 24.654L39.3 25.171C39.742 23.519 40 21.792 40 20L38 20C38 21.612 37.768 23.167 37.37 24.654L37.37 24.654Z" id="Shape" fill="#EF5350" stroke="none" />
      <path d="M24.654 2.63L25.171 0.7C23.519 0.258 21.792 0 20 0L20 2C21.612 2 23.167 2.232 24.654 2.63L24.654 2.63Z" id="Shape" fill="#64B5F6" stroke="none" />
      <path d="M7.272 7.272L5.858 5.858C4.627 7.089 3.571 8.491 2.693 10.008L4.424 11.007C5.214 9.642 6.164 8.38 7.272 7.272L7.272 7.272Z" id="Shape" fill="#68C1B8" stroke="none" />
      <path d="M4.424 11.007L2.693 10.008C1.827 11.503 1.156 13.12 0.7 14.828L2.63 15.345C3.041 13.808 3.645 12.353 4.424 11.007L4.424 11.007Z" id="Shape" fill="#81C784" stroke="none" />
      <path d="M11.007 4.424L10.008 2.693C8.491 3.571 7.089 4.627 5.858 5.858L7.272 7.272C8.38 6.164 9.642 5.214 11.007 4.424L11.007 4.424Z" id="Shape" fill="#4DB6AC" stroke="none" />
      <path d="M20 2L20 0C18.208 0 16.481 0.258 14.828 0.7L15.345 2.63C16.833 2.232 18.388 2 20 2L20 2Z" id="Shape" fill="#4BA9F5" stroke="none" />
    </g>
    <g id="Group" transform="translate(19 11)">
      <path d="M5.001 0L5.001 0L5 13C5.115 13 5.23 12.958 5.324 12.875C6.433 11.896 10 8.477 10 5.059C10 2.265 7.762 0.0010004 5.001 0L5.001 0Z" id="Shape" fill="#7986CB" stroke="none" />
      <path d="M5 0C4.999 0 4.999 0 5 0C2.239 0 0 2.265 0 5.059C0 8.477 3.567 11.896 4.676 12.875C4.77 12.958 4.885 13 5 13L5 0L5 0Z" id="Shape" fill="#26A69A" stroke="none" />
      <path d="M5 0L5 0L5 0C3.342 0 2 1.5 2 5C2 8.59 5 13 5 13C5 13 8 8.59 8 5C8 1.5 6.657 0 5 0L5 0Z" id="Shape" fill="#82B1FF" stroke="none" />
      <path d="M5 0C5.543 0 5.941 0.092 5.997 0.105C7.723 0.498 9 1.872 9 3.5C9 4.41 8.59 5.24 7.94 5.86C7.95 5.79 5.281 0.0299997 5 0L5 0Z" id="Shape" fill="#4DB6AC" stroke="none" />
      <path d="M6.82 9.66C5.98 11.56 5 13 5 13C5 13 4.02 11.56 3.18 9.66C3.75 9.88 4.36 10 5 10C5.64 10 6.25 9.88 6.82 9.66L6.82 9.66Z" id="Shape" fill="#90CAF9" stroke="none" />
      <path d="M2.06 5.86C1.4 5.25 1 4.41 1 3.5C1 1.81 2.37 0.4 4.19 0.0699997C4.35 0.04 4.831 0 5 0C3.49 0.18 2.02 5.57 2.06 5.86L2.06 5.86Z" id="Shape" fill="#8DD0CA" stroke="none" />
      <path d="M8 5C8 5.14 8 5.29 7.98 5.43C7.98 5.57 7.96 5.72 7.94 5.86C7.21 6.56 6.16 7 5 7C3.84 7 2.79 6.56 2.06 5.86C2.02 5.57 2 5.28 2 5C2 1.72 3.18 0.2 4.69 0.0200005C4.79 0 4.9 0 5 0C5.1 0 5.21 0 5.31 0.0200005C5.59 0.0500002 5.87 0.13 6.12 0.27C6.2 0.31 6.28 0.360001 6.36 0.410001C6.44 0.460001 6.52 0.52 6.6 0.6C6.67 0.660001 6.74 0.72 6.8 0.79C7.03 1.03 7.24 1.33 7.4 1.7C7.45 1.81 7.5 1.92 7.54 2.03C7.59 2.15 7.63 2.27 7.67 2.4C7.71 2.51 7.74 2.63 7.76 2.75C7.8 2.91 7.84 3.07 7.86 3.24C7.9 3.43 7.93 3.64 7.95 3.85C7.98 4.2 8 4.59 8 5L8 5Z" id="Shape" fill="#80CBC4" stroke="none" />
      <path d="M9.98 5.45C9.73 8.74 6.39 11.94 5.32 12.88C5.23 12.96 5.12 13 5 13C5 13 5.98 11.56 6.82 9.66C8.54 8.98 9.8 7.37 9.98 5.45L9.98 5.45Z" id="Shape" fill="#9FA8DA" stroke="none" />
      <path d="M5 13C4.88 13 4.77 12.96 4.68 12.88C3.61 11.94 0.27 8.74 0.0200005 5.45C0.200001 7.37 1.46 8.98 3.18 9.66C4.02 11.56 5 13 5 13L5 13Z" id="Shape" fill="#81C784" stroke="none" />
    </g>
  </g>
</svg>