<?xml version="1.0" encoding="utf-8"?>
<svg width="75px" height="63.970604px" viewBox="0 0 75 63.970604" version="1.1" xmlns:xlink="http://www.w3.org/1999/xlink" xmlns="http://www.w3.org/2000/svg">
  <g id="alchemy">
    <path d="M62.3943 40.9529L38.6609 0.659488C38.546 0.460526 38.3795 0.294791 38.1784 0.179008C37.9773 0.0632245 37.7485 0.00148744 37.5153 2.65434e-05C37.2821 -0.00143435 37.0526 0.0574323 36.85 0.170687C36.6473 0.283941 36.4789 0.447578 36.3614 0.645084L29.2535 12.7187C29.0207 13.1139 28.8982 13.5622 28.8982 14.0186C28.8982 14.475 29.0207 14.9233 29.2535 15.3185L44.7291 41.6047C44.9621 42.0003 45.2974 42.3287 45.701 42.5569C46.1047 42.7851 46.5626 42.905 47.0285 42.9045L61.2446 42.9045C61.4771 42.9039 61.7056 42.8433 61.9068 42.729C62.1084 42.6146 62.2756 42.4505 62.3921 42.2529C62.5085 42.0554 62.5699 41.8313 62.5703 41.6032C62.5703 41.3751 62.5098 41.1508 62.3943 40.9529L62.3943 40.9529Z" id="Shape" fill="#000000" stroke="none" />
    <path d="M0.183008 62.0118L23.9163 21.7183C24.0327 21.5209 24.2001 21.357 24.4016 21.2431C24.6031 21.1292 24.8316 21.0692 25.0642 21.0692C25.2967 21.0692 25.5253 21.1292 25.7268 21.2431C25.9283 21.357 26.0956 21.5209 26.2121 21.7183L33.3236 33.7811C33.5564 34.177 33.6788 34.6259 33.6788 35.0828C33.6788 35.5398 33.5564 35.9887 33.3236 36.3845L17.8479 62.6709C17.6158 63.0662 17.2813 63.3949 16.8782 63.6229C16.4751 63.851 16.0177 63.971 15.5521 63.9706L1.33275 63.9706C1.09852 63.9719 0.868156 63.9119 0.665087 63.7976C0.462013 63.6829 0.293505 63.5179 0.176685 63.319C0.0598655 63.12 -0.00109974 62.8941 1.50448e-05 62.6647C0.00112983 62.4348 0.0642609 62.2099 0.183008 62.0118L0.183008 62.0118Z" id="Shape" fill="#000000" stroke="none" />
    <path d="M26.2087 63.9618L73.6752 63.9618C73.9081 63.9618 74.1366 63.9013 74.3383 63.787C74.5399 63.6728 74.7071 63.5082 74.8231 63.3106C74.9391 63.1129 75.0005 62.8884 75 62.6603C74.9996 62.4318 74.9382 62.2076 74.8213 62.0104L67.7206 49.9403C67.4877 49.5446 67.1524 49.2163 66.7487 48.9882C66.345 48.7597 65.8871 48.6401 65.4212 48.6406L34.47 48.6406C34.004 48.6401 33.5461 48.7597 33.1424 48.9882C32.7388 49.2163 32.4035 49.5446 32.1705 49.9403L25.0627 62.0104C24.9459 62.2076 24.8843 62.4318 24.8839 62.6603C24.8836 62.8884 24.9445 63.1129 25.0607 63.3106C25.1769 63.5082 25.3441 63.6728 25.5457 63.787C25.7472 63.9013 25.9758 63.9618 26.2087 63.9618L26.2087 63.9618Z" id="Shape" fill="#000000" stroke="none" />
  </g>
</svg>