<?xml version="1.0" encoding="utf-8"?>
<svg width="69.18799px" height="75px" viewBox="0 0 69.18799 75" version="1.1" xmlns:xlink="http://www.w3.org/1999/xlink" xmlns="http://www.w3.org/2000/svg">
  <g id="electronjs-icon">
    <g id="electronjs-icon">
      <path d="M24.399 16.1202C14.5987 14.3355 6.849 16.2023 3.75997 21.5531C1.4549 25.5445 2.11349 30.8379 5.35725 36.4945C5.63452 36.9748 6.2478 37.1409 6.72952 36.866C7.20982 36.5887 7.37587 35.9754 7.101 35.4937C4.17951 30.396 3.61115 25.8293 5.5002 22.5562C8.07832 18.1125 14.9783 16.4461 24.0393 18.096C24.5848 18.1936 25.1067 17.8324 25.2076 17.2875C25.3051 16.7419 24.9439 16.22 24.399 16.1191L24.399 16.1202L24.399 16.1202ZM10.4537 43.3594C14.417 47.7141 19.565 51.7992 25.4372 55.1894C39.6662 63.3985 54.8009 65.6016 62.2505 60.5156C62.7077 60.2018 62.8256 59.5776 62.5142 59.1187C62.2004 58.6615 61.5762 58.5436 61.1173 58.855C54.4412 63.4066 40.0634 61.3231 26.4299 53.4586C20.7345 50.1703 15.7482 46.2141 11.9279 42.0164C11.5536 41.6071 10.9187 41.5771 10.5076 41.9496C10.0982 42.324 10.0683 42.9588 10.4408 43.3699L10.4537 43.3594L10.4537 43.3594ZM59.881 42.1488C66.2982 34.5668 68.5389 26.9425 65.4568 21.6058C63.1892 17.6777 58.3951 15.6035 52.0225 15.5215C51.4681 15.5156 51.0131 15.9586 51.0041 16.5129C50.9982 17.0672 51.4412 17.5222 51.9955 17.5312C57.7377 17.6062 61.8568 19.3921 63.7143 22.6113C66.2748 27.0457 64.2767 33.8449 58.3447 40.8527C57.9873 41.2768 58.0396 41.9099 58.4619 42.2695C58.8859 42.6269 59.5191 42.5746 59.8787 42.1523L59.881 42.1488L59.881 42.1488ZM43.3881 16.4531C37.5873 17.6953 31.4092 20.1269 25.4783 23.5512C10.8018 32.0238 1.22757 44.5312 2.5553 53.5781C2.63732 54.1264 3.14679 54.5055 3.69553 54.4266C4.24383 54.3445 4.62294 53.835 4.54397 53.2863C3.3639 45.2425 12.4389 33.3996 26.4815 25.2785C32.2237 21.9562 38.2154 19.6031 43.8076 18.4043C44.3493 18.2867 44.6944 17.7537 44.5799 17.2113C44.4622 16.6696 43.9293 16.3245 43.3869 16.439L43.3881 16.4531L43.3881 16.4531Z" id="Shape" fill="#000000" fill-rule="evenodd" stroke="none" />
      <path d="M19.6118 59.8617C22.9669 69.2308 28.4559 75 34.6294 75C39.1317 75 43.2965 71.9296 46.5438 66.5273C46.8283 66.0514 46.6748 65.4351 46.2005 65.1481C45.7245 64.8636 45.1082 65.017 44.8211 65.4914C41.8915 70.3465 38.3173 72.9879 34.6294 72.9879C29.5024 72.9879 24.6063 67.8316 21.5044 59.1832C21.3159 58.6616 20.7413 58.3903 20.2188 58.5762C19.6972 58.7647 19.4259 59.3392 19.6118 59.8617L19.6118 59.8617L19.6118 59.8617ZM50.2598 58.0289C51.9965 52.4777 52.9294 46.0758 52.9294 39.4019C52.9294 22.7519 47.1016 8.39877 38.8012 4.71443C38.2938 4.49076 37.701 4.71909 37.4746 5.22537C37.251 5.73282 37.4793 6.32562 37.9856 6.55193C45.3895 9.83787 50.9184 23.4609 50.9184 39.4031C50.9184 45.8766 50.0161 52.0781 48.3403 57.43C48.1759 57.9597 48.4702 58.5226 48.9989 58.6898C49.5285 58.8543 50.0914 58.56 50.2586 58.0312L50.2598 58.0289L50.2598 58.0289ZM69.1879 57.0445C69.1879 54.3878 67.034 52.2339 64.3774 52.2339C61.7208 52.2339 59.5552 54.3749 59.5552 57.0445C59.5552 59.714 61.709 61.855 64.3657 61.855C67.0223 61.855 69.1762 59.7011 69.1762 57.0445L69.1879 57.0445L69.1879 57.0445ZM67.1781 57.0445C67.1781 58.5892 65.9256 59.8428 64.3797 59.8441C62.8333 59.8441 61.5796 58.5909 61.5789 57.0445C61.5789 55.4998 62.8314 54.2462 64.3773 54.2449C65.9238 54.2449 67.1775 55.4981 67.1781 57.0445L67.1781 57.0445L67.1781 57.0445Z" id="Shape#1" fill="#000000" fill-rule="evenodd" stroke="none" />
      <path d="M4.80996 61.8551C7.46661 61.8551 9.62053 59.7012 9.62053 57.0446C9.62053 54.3879 7.46661 52.234 4.80996 52.234C2.15317 52.2343 -0.000314891 54.3884 0 57.0451C0.00031507 59.7019 2.15431 61.8554 4.81108 61.8551L4.80996 61.8551L4.80996 61.8551ZM4.80992 59.8453C3.26401 59.8447 2.01096 58.5917 2.01031 57.0457C2.01031 55.501 3.26284 54.2474 4.80872 54.2461C6.35515 54.2461 7.60884 55.4993 7.60952 57.0457C7.60952 58.5905 6.35702 59.844 4.81112 59.8453L4.80992 59.8453L4.80992 59.8453ZM34.6295 9.60937C37.2861 9.60937 39.44 7.45546 39.44 4.79883C39.44 2.14219 37.2849 3.57628e-07 34.6295 3.57628e-07C31.9739 3.57628e-07 29.8189 2.15391 29.8189 4.81054C29.8189 7.46719 31.9728 9.60937 34.6295 9.60937L34.6295 9.60937L34.6295 9.60937ZM34.6295 7.59959C33.0836 7.59899 31.8305 6.3459 31.8299 4.79999C31.8307 3.25388 33.0838 2.00092 34.6297 2.00038C36.1756 2.00113 37.4285 3.25415 37.4291 4.79999C37.4291 6.34472 36.1766 7.59831 34.6307 7.59959L34.6295 7.59959L34.6295 7.59959ZM35.3631 42.8027C34.1442 43.0742 32.8733 42.6718 32.0327 41.7484C31.1921 40.8249 30.9107 39.5218 31.2952 38.3338C31.6797 37.1456 32.6713 36.2546 33.8936 35.9988C35.1125 35.7273 36.3835 36.1296 37.2242 37.0531C38.0648 37.9766 38.3462 39.2797 37.9617 40.4678C37.5771 41.656 36.5855 42.547 35.3631 42.8027L35.3631 42.8027L35.3631 42.8027Z" id="Shape#2" fill="#000000" fill-rule="evenodd" stroke="none" />
    </g>
  </g>
</svg>