<?xml version="1.0" encoding="utf-8"?>
<svg width="70.312744px" height="70.31506px" viewBox="0 0 70.312744 70.31506" version="1.1" xmlns:xlink="http://www.w3.org/1999/xlink" xmlns="http://www.w3.org/2000/svg">
  <g id="blackhole">
    <g id="blackhole">
      <g id="blackhole_light">
        <g id="blackhole_dark">
          <g id="008-blackhole_lunacy">
            <g id="008-blackhole">
              <g id="Mask-Group">
                <g id="Mask-Group#1">
                  <g id="Mask-Group#2">
                    <g id="Mask-Group#3">
                      <path d="M19.9219 35.1586C19.9219 26.7449 26.7425 19.9242 35.1563 19.9242C43.57 19.9242 50.3906 26.7449 50.3906 35.1586C50.3906 43.5724 43.57 50.393 35.1563 50.393C26.7425 50.393 19.9219 43.5724 19.9219 35.1586L19.9219 35.1586L19.9219 35.1586L19.9219 35.1586L19.9219 35.1586L19.9219 35.1586ZM14.0625 4.6898C14.0625 2.74818 15.6365 1.17418 17.5781 1.17418C19.5198 1.17418 21.0938 2.74818 21.0938 4.6898C21.0938 6.63142 19.5198 8.20543 17.5781 8.20543C15.6365 8.20543 14.0625 6.63142 14.0625 4.6898L14.0625 4.6898L14.0625 4.6898L14.0625 4.6898L14.0625 4.6898L14.0625 4.6898ZM1.17191 14.0648C1.17191 11.476 3.27057 9.3773 5.8594 9.3773C8.44824 9.3773 10.5469 11.476 10.5469 14.0648C10.5469 16.6537 8.44824 18.7524 5.8594 18.7524C3.27057 18.7524 1.17191 16.6537 1.17191 14.0648L1.17191 14.0648L1.17191 14.0648L1.17191 14.0648L1.17191 14.0648L1.17191 14.0648ZM56.25 60.9399C56.25 58.3511 58.3487 56.2524 60.9375 56.2524C63.5263 56.2524 65.625 58.3511 65.625 60.9399C65.625 63.5287 63.5263 65.6274 60.9375 65.6274C58.3487 65.6274 56.25 63.5287 56.25 60.9399L56.25 60.9399L56.25 60.9399L56.25 60.9399L56.25 60.9399L56.25 60.9399ZM44.8745 9.03408C49.518 13.6776 52.1805 20.4227 52.1805 27.5414C52.1805 29.5963 51.9573 31.6384 51.5146 33.6384C51.1251 26.9723 48.1818 20.7614 43.1257 16.0055C37.8012 10.9846 30.756 8.19345 23.4375 8.20542C22.7909 8.20631 22.2672 8.73071 22.2672 9.37729C22.2672 10.0239 22.7909 10.5483 23.4375 10.5492C30.1521 10.5739 36.61 13.1321 41.52 17.7123C42.6256 18.7506 43.6365 19.8854 44.5406 21.1033C39.7881 17.6936 33.7898 15.7906 27.5391 15.7906C19.8035 15.7906 12.4538 18.7037 7.3745 23.7831C6.91683 24.2407 6.91683 24.9828 7.3745 25.4404C7.83214 25.898 8.57416 25.898 9.03182 25.4404C13.6754 20.7968 20.4204 18.1343 27.5391 18.1343C29.5825 18.1339 31.6201 18.3555 33.6157 18.7956C26.9142 19.159 20.7167 21.8887 16.0282 26.5774C10.9821 31.6234 8.20316 38.4166 8.20316 45.7055C8.20316 46.3527 8.72782 46.8774 9.37503 46.8774C10.0222 46.8774 10.5469 46.3527 10.5469 45.7055C10.5469 36.9172 14.9317 29.3432 21.6797 24.9993C17.9076 29.866 15.7882 36.18 15.7882 42.7758C15.7882 50.5114 18.7014 57.8611 23.7807 62.9404C24.2383 63.398 24.9804 63.398 25.438 62.9404C25.8957 62.4826 25.8957 61.7407 25.438 61.2831C20.7945 56.6395 18.132 49.8945 18.132 42.7758C18.1313 40.7307 18.3539 38.6884 18.7957 36.6883C19.1874 43.3449 22.1307 49.5558 27.1868 54.3117C32.5113 59.3326 39.5565 62.1238 46.875 62.1117C47.5222 62.1117 48.0469 61.587 48.0469 60.9399C48.0469 60.2927 47.5222 59.768 46.875 59.768C40.1605 59.7432 33.7025 57.185 28.7925 52.6049C27.7071 51.5857 26.7129 50.4734 25.8214 49.281C30.496 52.6866 36.1734 54.5271 42.1875 54.5271C49.6589 54.5271 56.6121 51.6886 61.7662 46.5346C62.2238 46.077 62.2238 45.3349 61.7662 44.8773C61.3085 44.4197 60.5665 44.4197 60.1088 44.8773C55.3976 49.5882 49.0329 52.1829 42.1875 52.1829C40.2299 52.1845 38.2783 51.9673 36.3689 51.5353C43.1473 51.2197 49.4792 48.2635 54.3094 43.1281C59.3303 37.8035 62.1214 30.7584 62.1094 23.4399C62.1094 22.7927 61.5847 22.268 60.9375 22.268C60.2903 22.268 59.7656 22.7927 59.7656 23.4399C59.7409 30.1546 57.1827 36.6123 52.6025 41.5223C51.5643 42.628 50.4295 43.6389 49.2116 44.5428C52.6217 39.7905 54.5247 33.7922 54.5247 27.5414C54.5247 19.8059 51.6116 12.4561 46.5322 7.37676C46.0746 6.91909 45.3325 6.91909 44.8749 7.37676C44.4173 7.8344 44.4173 8.57642 44.8749 9.03408L44.8745 9.03408L44.8745 9.03408L44.8745 9.03408L44.8745 9.03408L44.8745 9.03408L44.8745 9.03408ZM49.2188 35.1586C49.2188 42.9251 42.9227 49.2211 35.1563 49.2211C27.3898 49.2211 21.0938 42.9252 21.0938 35.1586C21.0938 27.3922 27.3897 21.0961 35.1561 21.0961C42.919 21.1048 49.21 27.3957 49.2188 35.1586L49.2188 35.1586L49.2188 35.1586L49.2188 35.1586L49.2188 35.1586L49.2188 35.1586L49.2188 35.1586ZM28.3661 67.9962C21.1666 66.4817 14.5701 62.3419 9.79192 56.3409C4.99343 50.3211 2.36887 42.8568 2.34378 35.1586C2.34378 29.8559 3.62987 24.6264 6.09199 19.9234C7.89316 19.8536 9.56181 18.958 10.6156 17.4957C11.6693 16.0332 11.9907 14.1669 11.4867 12.4362C12.7248 11.1469 14.0653 9.96007 15.4953 8.88749C16.9015 9.58671 18.5646 9.53464 19.9244 8.7488C21.284 7.96296 22.1594 6.54797 22.2557 4.98043C26.3316 3.23278 30.7214 2.33631 35.1563 2.34605C38.6007 2.34605 41.5617 2.71461 44.209 3.47252C44.826 3.63623 45.4605 3.27592 45.6362 2.66215C45.8118 2.04839 45.4638 1.407 44.8535 1.21959C41.9943 0.400451 38.822 0.0023069 35.1563 0.0023069C30.5711 -0.00699491 26.0292 0.887761 21.7903 2.63536C21.0227 1.05836 19.4388 0.0419748 17.6852 0.00129618C15.9318 -0.0393679 14.3025 0.902483 13.4625 2.44222C12.6227 3.98194 12.7128 5.86179 13.6963 7.31405C12.5108 8.22926 11.3844 9.2187 10.3241 10.2765C8.74916 8.41931 6.18948 7.73032 3.89514 8.54597C1.6008 9.36161 0.050424 11.5117 0.00120518 13.9463C-0.0480135 16.3808 1.41418 18.5918 3.67368 19.4996C1.25817 24.3662 0.000868225 29.7255 3.33879e-05 35.1586C0.0257561 43.3864 2.82992 51.3649 7.95791 57.8001C13.0754 64.2279 20.1516 68.6633 27.8839 70.2898C28.5171 70.4228 29.1385 70.0172 29.2717 69.3841C29.4048 68.7509 28.9995 68.1295 28.3663 67.9962L28.3661 67.9962L28.3661 67.9962L28.3661 67.9962L28.3661 67.9962L28.3661 67.9962L28.3661 67.9962ZM17.5781 2.34605C18.8726 2.34605 19.9219 3.39538 19.9219 4.6898C19.9219 5.98421 18.8726 7.03355 17.5781 7.03355C16.2838 7.03355 15.2344 5.98423 15.2344 4.68982C15.236 3.39599 16.2844 2.34756 17.5781 2.34605L17.5781 2.34605L17.5781 2.34605L17.5781 2.34605L17.5781 2.34605L17.5781 2.34605L17.5781 2.34605ZM2.34378 14.0648C2.34378 12.1232 3.91777 10.5492 5.85939 10.5492C7.80103 10.5492 9.37501 12.1232 9.37503 14.0648C9.37503 16.0065 7.80104 17.5805 5.85942 17.5805C3.91872 17.5783 2.34604 16.0055 2.34378 14.0648L2.34378 14.0648L2.34378 14.0648L2.34378 14.0648L2.34378 14.0648L2.34378 14.0648L2.34378 14.0648ZM63.6536 55.7505C68.0083 49.7703 70.3412 42.5564 70.3125 35.1586C70.3279 28.5205 68.4738 22.0117 64.9626 16.3774C61.5483 10.9124 56.6839 6.50283 50.9111 3.63981C50.3311 3.35238 49.628 3.58945 49.3406 4.16935C49.0532 4.74925 49.2902 5.45236 49.8701 5.73981C55.2542 8.40997 59.7911 12.5228 62.9752 17.6198C66.2534 22.8813 67.984 28.9594 67.9687 35.1586C67.9967 42.3664 65.624 49.3782 61.2249 55.0878C61.1297 55.0831 61.0345 55.0805 60.9375 55.0805C57.703 55.0842 55.0818 57.7054 55.0781 60.9399C55.0781 61.036 55.0807 61.1315 55.0854 61.2265C49.3756 65.6253 42.3638 67.9982 35.1562 67.9711C34.5099 67.9724 33.9867 68.4967 33.9867 69.143C33.9867 69.7893 34.5099 70.3136 35.1562 70.3149C42.5538 70.3432 49.7677 68.0105 55.7484 63.6566C56.9175 65.8918 59.3864 67.1277 61.8763 66.7241C64.3664 66.3205 66.3184 64.3682 66.7217 61.8781C67.125 59.388 65.8889 56.9195 63.6536 55.7505L63.6536 55.7505L63.6536 55.7505L63.6536 55.7505L63.6536 55.7505L63.6536 55.7505L63.6536 55.7505ZM60.9375 64.4555C58.9958 64.4555 57.4219 62.8815 57.4219 60.9399C57.4219 58.9982 58.9958 57.4243 60.9375 57.4243C62.8791 57.4243 64.4531 58.9982 64.4531 60.9399C64.4509 62.8805 62.8783 64.4532 60.9375 64.4555L60.9375 64.4555L60.9375 64.4555L60.9375 64.4555L60.9375 64.4555L60.9375 64.4555L60.9375 64.4555Z" id="Group" fill="#000000" fill-rule="evenodd" stroke="none" />
                    </g>
                  </g>
                </g>
              </g>
            </g>
          </g>
        </g>
      </g>
    </g>
  </g>
</svg>